<mxfile host="app.diagrams.net" modified="2023-04-10T09:14:39.023Z" agent="Mozilla/5.0 (Macintosh; Intel Mac OS X 10_15_7) AppleWebKit/537.36 (KHTML, like Gecko) Chrome/111.0.0.0 Safari/537.36" etag="bAmqm8koIpa0ibRlXQF9" version="21.1.5" type="github">
  <diagram name="Страница 1" id="bQ_sUt_3Wh9Wx7oGjv2P">
    <mxGraphModel dx="1026" dy="604" grid="1" gridSize="10" guides="1" tooltips="1" connect="1" arrows="1" fold="1" page="1" pageScale="1" pageWidth="827" pageHeight="1169" math="0" shadow="0">
      <root>
        <mxCell id="0" />
        <mxCell id="1" parent="0" />
        <mxCell id="_G6RMqRvs4XDsVMkIvbF-2" value="Начало" style="strokeWidth=2;html=1;shape=mxgraph.flowchart.start_2;whiteSpace=wrap;" vertex="1" parent="1">
          <mxGeometry x="364" y="30" width="66" height="60" as="geometry" />
        </mxCell>
        <mxCell id="_G6RMqRvs4XDsVMkIvbF-3" value="Ввод данных" style="shape=parallelogram;html=1;strokeWidth=2;perimeter=parallelogramPerimeter;whiteSpace=wrap;rounded=1;arcSize=12;size=0.23;" vertex="1" parent="1">
          <mxGeometry x="340.5" y="120" width="113" height="60" as="geometry" />
        </mxCell>
        <mxCell id="_G6RMqRvs4XDsVMkIvbF-7" value="Создаём битовые маски для каждой крышки/набора крышек. Сохраняем преобразованные данные." style="rounded=1;whiteSpace=wrap;html=1;absoluteArcSize=1;arcSize=14;strokeWidth=2;" vertex="1" parent="1">
          <mxGeometry x="315.88" y="220" width="162.25" height="80" as="geometry" />
        </mxCell>
        <mxCell id="_G6RMqRvs4XDsVMkIvbF-9" value="" style="rounded=1;whiteSpace=wrap;html=1;absoluteArcSize=1;arcSize=14;strokeWidth=2;" vertex="1" parent="1">
          <mxGeometry x="314.94" y="330" width="164.12" height="60" as="geometry" />
        </mxCell>
        <mxCell id="_G6RMqRvs4XDsVMkIvbF-17" value="" style="endArrow=none;html=1;rounded=0;entryX=0.5;entryY=1;entryDx=0;entryDy=0;entryPerimeter=0;exitX=0.5;exitY=0;exitDx=0;exitDy=0;" edge="1" parent="1" source="_G6RMqRvs4XDsVMkIvbF-3" target="_G6RMqRvs4XDsVMkIvbF-2">
          <mxGeometry relative="1" as="geometry">
            <mxPoint x="310" y="270" as="sourcePoint" />
            <mxPoint x="470" y="270" as="targetPoint" />
          </mxGeometry>
        </mxCell>
        <mxCell id="_G6RMqRvs4XDsVMkIvbF-18" value="" style="endArrow=none;html=1;rounded=0;exitX=0.5;exitY=1;exitDx=0;exitDy=0;entryX=0.5;entryY=0;entryDx=0;entryDy=0;" edge="1" parent="1" source="_G6RMqRvs4XDsVMkIvbF-3" target="_G6RMqRvs4XDsVMkIvbF-7">
          <mxGeometry relative="1" as="geometry">
            <mxPoint x="310" y="270" as="sourcePoint" />
            <mxPoint x="470" y="270" as="targetPoint" />
          </mxGeometry>
        </mxCell>
        <mxCell id="_G6RMqRvs4XDsVMkIvbF-19" value="" style="endArrow=none;html=1;rounded=0;entryX=0.5;entryY=0;entryDx=0;entryDy=0;exitX=0.5;exitY=1;exitDx=0;exitDy=0;" edge="1" parent="1" source="_G6RMqRvs4XDsVMkIvbF-7" target="_G6RMqRvs4XDsVMkIvbF-9">
          <mxGeometry relative="1" as="geometry">
            <mxPoint x="310" y="270" as="sourcePoint" />
            <mxPoint x="470" y="270" as="targetPoint" />
          </mxGeometry>
        </mxCell>
        <mxCell id="_G6RMqRvs4XDsVMkIvbF-20" value="" style="rounded=1;whiteSpace=wrap;html=1;absoluteArcSize=1;arcSize=14;strokeWidth=2;" vertex="1" parent="1">
          <mxGeometry x="320" y="420" width="160" height="50" as="geometry" />
        </mxCell>
        <mxCell id="_G6RMqRvs4XDsVMkIvbF-21" value="" style="strokeWidth=2;html=1;shape=mxgraph.flowchart.decision;whiteSpace=wrap;" vertex="1" parent="1">
          <mxGeometry x="347" y="500" width="100" height="100" as="geometry" />
        </mxCell>
      </root>
    </mxGraphModel>
  </diagram>
</mxfile>
